<?xml version="1.0" encoding="UTF-8"?>
<!DOCTYPE svg PUBLIC "-//W3C//DTD SVG 1.1//EN" "http://www.w3.org/Graphics/SVG/1.1/DTD/svg11.dtd">
<!-- Creator: CorelDRAW -->
<svg xmlns="http://www.w3.org/2000/svg" xml:space="preserve" width="36.7507mm" height="12.4868mm" version="1.1" style="shape-rendering:geometricPrecision; text-rendering:geometricPrecision; image-rendering:optimizeQuality; fill-rule:evenodd; clip-rule:evenodd"
viewBox="0 0 9016.48 3063.53"
 xmlns:xlink="http://www.w3.org/1999/xlink"
 xmlns:xodm="http://www.corel.com/coreldraw/odm/2003">
 <defs>
  <style type="text/css">
   <![CDATA[
    .fil0 {fill:#1D3F26;fill-rule:nonzero}
    .fil1 {fill:#2A463A;fill-rule:nonzero}
   ]]>
  </style>
 </defs>
 <g id="Layer_x0020_1">
  <metadata id="CorelCorpID_0Corel-Layer"/>
  <path class="fil0" d="M-0 1549.33l0 -1549.33 333.49 0 0 1549.33 -333.49 0zm949.57 0l-315.12 0 0 -1123.05 292.1 0 0 159.4c50.22,-75.37 95.49,-124.78 135.72,-148.24 40.26,-23.43 85.87,-34.96 136.85,-34.96 72.08,0 141.46,18.74 208.17,55.89l-97.74 258.93c-53.31,-32.46 -102.75,-48.68 -148.36,-48.68 -44.48,0 -82.04,11.53 -112.71,34.25 -30.69,23.09 -54.83,64.21 -72.45,124.07 -17.66,59.86 -26.47,185.38 -26.47,376.16l0 346.23zm895.13 0l-315.12 0 0 -1123.05 292.1 0 0 159.4c50.22,-75.37 95.49,-124.78 135.72,-148.24 40.26,-23.43 85.87,-34.96 136.85,-34.96 72.08,0 141.46,18.74 208.17,55.89l-97.74 258.93c-53.31,-32.46 -102.75,-48.68 -148.36,-48.68 -44.48,0 -82.04,11.53 -112.73,34.25 -30.67,23.09 -54.81,64.21 -72.42,124.07 -17.66,59.86 -26.47,185.38 -26.47,376.16l0 346.23zm828.44 -776.83l-285.23 -47.62c32.21,-109.64 87.78,-190.78 166.39,-243.43 78.56,-52.65 195.51,-78.98 350.37,-78.98 140.68,0 245.73,15.51 314.72,46.88 68.62,31.35 117.32,71.03 145.29,119.36 27.99,48.33 42.17,136.68 42.17,265.8l-4.59 346.23c0,98.46 4.98,171.3 14.94,218.18 9.96,46.88 28.73,97.01 56.35,150.39l-312.81 0c-8.07,-19.48 -18.43,-48.33 -30.28,-86.56 -5,-17.66 -8.86,-29.22 -11.14,-34.62 -53.68,49.76 -111.19,86.92 -172.52,111.8 -61.34,24.88 -126.5,37.51 -195.86,37.51 -122.33,0 -218.92,-31.38 -289.45,-94.14 -70.51,-62.39 -105.82,-141.73 -105.82,-237.66 0,-63.13 16.12,-119.75 48.31,-169.51 32.21,-49.41 77.06,-87.64 135.33,-113.96 57.88,-26.33 141.46,-49.41 250.71,-69.26 147.2,-25.96 249.56,-50.49 306.28,-72.84l0 -29.93c0,-57.7 -14.94,-98.82 -44.85,-123.7 -30.28,-24.53 -87.02,-36.8 -170.19,-36.8 -56.35,0 -100.05,10.48 -131.48,31.75 -31.82,20.93 -57.14,58.07 -76.67,111.09zm423.19 240.19c-40.24,12.61 -104.25,27.77 -192.03,45.44 -87.42,17.66 -144.92,34.99 -171.76,51.57 -41.02,27.77 -61.73,62.39 -61.73,104.59 0,41.83 16.51,77.53 49.46,107.83 32.97,30.3 74.76,45.44 125.74,45.44 56.75,0 111.16,-17.66 162.93,-52.65 37.95,-27.04 63.25,-59.5 75.15,-98.46 8.05,-25.25 12.24,-73.58 12.24,-144.63l0 -59.13zm1716.29 536.64l-292.13 0 0 -164.82c-48.68,64.21 -106.58,112.17 -172.89,144.63 -66.32,32.09 -133.39,48.33 -200.89,48.33 -137.61,0 -255.3,-51.94 -353.44,-156.16 -97.74,-104.25 -146.84,-249.22 -146.84,-435.68 0,-190.41 47.55,-335.41 143.01,-434.57 95.44,-99.19 215.83,-148.58 361.49,-148.58 133.42,0 249.19,52.28 346.57,156.5l0 -558.99 315.12 0 0 1549.33zm-841.87 -583.18c0,120.09 17.64,207.02 52.53,260.75 50.98,77.92 121.91,116.86 213.15,116.86 72.45,0 134.18,-29.22 184.79,-87.64 50.98,-58.42 76.28,-145.34 76.28,-261.46 0,-129.49 -24.53,-222.52 -74,-279.52 -49.46,-56.97 -112.32,-85.48 -189.38,-85.48 -74.73,0 -137.24,28.14 -187.83,84.4 -50.25,56.26 -75.54,140.29 -75.54,252.09zm1151.98 -691.35l0 -274.81 315.14 0 0 274.81 -315.14 0zm0 1274.53l0 -1123.05 315.14 0 0 1123.05 -315.14 0zm873.71 -776.83l-285.23 -47.62c32.21,-109.64 87.78,-190.78 166.39,-243.43 78.56,-52.65 195.51,-78.98 350.35,-78.98 140.7,0 245.76,15.51 314.75,46.88 68.62,31.35 117.3,71.03 145.29,119.36 27.99,48.33 42.17,136.68 42.17,265.8l-4.59 346.23c0,98.46 4.98,171.3 14.94,218.18 9.96,46.88 28.73,97.01 56.35,150.39l-312.81 0c-8.07,-19.48 -18.43,-48.33 -30.28,-86.56 -5,-17.66 -8.86,-29.22 -11.14,-34.62 -53.68,49.76 -111.19,86.92 -172.52,111.8 -61.34,24.88 -126.5,37.51 -195.88,37.51 -122.3,0 -218.89,-31.38 -289.43,-94.14 -70.54,-62.39 -105.82,-141.73 -105.82,-237.66 0,-63.13 16.12,-119.75 48.31,-169.51 32.21,-49.41 77.06,-87.64 135.31,-113.96 57.9,-26.33 141.49,-49.41 250.74,-69.26 147.2,-25.96 249.56,-50.49 306.28,-72.84l0 -29.93c0,-57.7 -14.94,-98.82 -44.85,-123.7 -30.28,-24.53 -87.02,-36.8 -170.19,-36.8 -56.35,0 -100.07,10.48 -131.48,31.75 -31.82,20.93 -57.14,58.07 -76.67,111.09zm423.19 240.19c-40.24,12.61 -104.27,27.77 -192.03,45.44 -87.42,17.66 -144.92,34.99 -171.76,51.57 -41.02,27.77 -61.73,62.39 -61.73,104.59 0,41.83 16.51,77.53 49.46,107.83 32.97,30.3 74.76,45.44 125.74,45.44 56.75,0 111.16,-17.66 162.93,-52.65 37.95,-27.04 63.25,-59.5 75.15,-98.46 8.05,-25.25 12.24,-73.58 12.24,-144.63l0 -59.13zm1707.06 536.64l-315.09 0 0 -572.36c0,-121.17 -6.92,-199.44 -20.31,-234.77 -13.81,-35.72 -35.67,-63.13 -66.34,-82.95 -30.67,-19.85 -67.44,-29.59 -110.4,-29.59 -55.18,0 -104.66,14.08 -148.36,42.2 -44.09,28.14 -74,65.65 -90.09,111.8 -16.49,46.54 -24.53,132.36 -24.53,257.88l0 507.78 -315.12 0 0 -1123.05 292.1 0 0 164.82c104.66,-125.88 236.17,-188.62 395.27,-188.62 69.75,0 133.78,11.9 191.66,35.33 58.27,23.8 101.99,53.73 131.5,90.16 29.88,36.78 50.59,78.26 62.1,124.78 11.87,46.52 17.62,112.88 17.62,199.44l0 697.14zm864.46 -1123.05l0 235.85 -216.2 0 0 454.79c0,92.32 1.91,146.05 6.13,161.21 4.22,15.14 13.4,27.77 28.39,37.86 14.55,9.74 32.19,14.79 53.26,14.79 29.51,0 71.69,-9.37 127.26,-28.48l26.47 230.82c-73.21,29.56 -156.01,44.36 -248.8,44.36 -56.72,0 -107.7,-9.03 -153.31,-27.06 -45.66,-18.03 -79,-41.46 -100.07,-69.97 -21.47,-28.85 -36.04,-67.44 -44.46,-116.49 -6.53,-34.62 -9.96,-104.59 -9.96,-210.26l0 -491.57 -144.92 0 0 -235.85 144.92 0 0 -222.89 315.09 -175.27 0 398.16 216.2 0z"/>
  <path class="fil1" d="M2623.41 2597.41l112.22 14.79c-17.47,65.16 -50.15,115.92 -97.84,151.89 -47.67,35.97 -108.51,54.05 -182.71,54.05 -93.3,0 -167.3,-28.78 -221.96,-86.31 -54.66,-57.36 -81.99,-138.13 -81.99,-241.91 0,-107.29 27.53,-190.73 82.83,-249.93 55.28,-59.4 127.01,-88.99 215.16,-88.99 85.31,0 154.98,28.97 209.03,87.15 54.05,58.17 81.18,139.97 81.18,245.39 0,6.38 -0.22,16.05 -0.61,28.78l-476.63 0c4.12,70.07 23.85,123.92 59.62,161.12 35.55,37.22 80.15,55.91 133.37,55.91 39.67,0 73.58,-10.48 101.55,-31.45 28.14,-20.95 50.34,-54.47 66.78,-100.49zm-355.13 -173.87l356.36 0c-4.71,-53.85 -18.5,-94.14 -40.9,-121.05 -34.32,-41.73 -79.12,-62.68 -134.01,-62.68 -49.73,0 -91.44,16.66 -125.35,49.95 -33.71,33.29 -52.43,77.87 -56.11,133.78zm720.76 381.04l0 -640 97.43 0 0 90.85c46.86,-69.68 114.67,-104.42 203.27,-104.42 38.64,0 74,6.99 106.26,20.76 32.26,13.76 56.5,32.07 72.55,54.47 16.02,22.4 27.33,49.12 33.71,79.96 3.9,20.14 5.96,55.28 5.96,105.42l0 392.96 -108.51 0 0 -388.84c0,-44.19 -4.12,-77.28 -12.54,-99.07 -8.44,-21.79 -23.43,-39.25 -44.82,-52.4 -21.37,-12.95 -46.64,-19.53 -75.42,-19.53 -46.03,0 -85.7,14.6 -119.21,43.99 -33.49,29.17 -50.15,84.86 -50.15,166.66l0 349.19 -108.51 0zm1238.71 -207.17l112.22 14.79c-17.47,65.16 -50.15,115.92 -97.84,151.89 -47.67,35.97 -108.51,54.05 -182.71,54.05 -93.3,0 -167.3,-28.78 -221.96,-86.31 -54.66,-57.36 -81.99,-138.13 -81.99,-241.91 0,-107.29 27.53,-190.73 82.83,-249.93 55.28,-59.4 127.01,-88.99 215.16,-88.99 85.31,0 154.98,28.97 209.03,87.15 54.05,58.17 81.18,139.97 81.18,245.39 0,6.38 -0.22,16.05 -0.61,28.78l-476.63 0c4.12,70.07 23.85,123.92 59.62,161.12 35.55,37.22 80.15,55.91 133.37,55.91 39.67,0 73.58,-10.48 101.55,-31.45 28.14,-20.95 50.34,-54.47 66.78,-100.49zm-355.13 -173.87l356.36 0c-4.71,-53.85 -18.5,-94.14 -40.9,-121.05 -34.32,-41.73 -79.12,-62.68 -134.01,-62.68 -49.73,0 -91.44,16.66 -125.35,49.95 -33.71,33.29 -52.43,77.87 -56.11,133.78zm719.54 381.04l0 -640 97.43 0 0 98.04c24.85,-45.41 47.89,-75.44 69.04,-89.82 21.17,-14.6 44.41,-21.79 69.68,-21.79 36.58,0 73.8,11.51 111.61,34.32l-38.64 100.1c-26.3,-14.79 -52.6,-22.2 -78.93,-22.2 -23.63,0 -44.8,7.19 -63.49,21.37 -18.72,14.18 -32.07,33.91 -40.09,59.2 -12.12,38.42 -18.08,80.57 -18.08,126.4l0 334.38 -108.51 0zm508.27 53.02l104.81 14.79c4.32,32.48 16.66,56.11 36.78,71.12 26.94,19.92 63.72,30.01 110.38,30.01 50.15,0 88.99,-10.08 116.32,-30.01 27.33,-19.95 45.83,-48.09 55.5,-84.05 5.54,-22.01 8.22,-68.25 7.8,-138.74 -47.47,55.91 -106.45,83.86 -177.16,83.86 -87.95,0 -156.18,-31.65 -204.27,-95.17 -48.31,-63.3 -72.35,-139.33 -72.35,-227.92 0,-61.04 11.09,-117.35 33.1,-168.94 21.98,-51.57 54.05,-91.24 95.98,-119.41 41.93,-28.14 91.24,-42.13 147.97,-42.13 75.44,0 137.71,30.84 186.63,92.49l0 -78.93 99.88 0 0 552.66c0,99.68 -10.08,170.17 -30.42,211.68 -20.14,41.51 -52.4,74.41 -96.17,98.46 -43.99,24.04 -98.04,36.16 -162.17,36.16 -76.25,0 -137.71,-17.05 -184.55,-51.37 -47.08,-34.13 -69.68,-85.7 -68.03,-154.57zm88.79 -383.91c0,83.64 16.63,144.68 49.93,183.12 33.51,38.42 75.22,57.75 125.37,57.75 49.95,0 91.66,-19.11 125.59,-57.34 33.69,-38.22 50.54,-98.26 50.54,-180.06 0,-78.09 -17.47,-137.07 -52.21,-176.74 -34.72,-39.67 -76.64,-59.4 -125.57,-59.4 -48.28,0 -89.18,19.53 -123.11,58.59 -33.69,39.03 -50.54,97.01 -50.54,174.07zm733.3 -428.71l0 -123.33 108.51 0 0 123.33 -108.51 0zm0 759.6l0 -640 108.51 0 0 640 -108.51 0zm826.85 -207.17l112.22 14.79c-17.47,65.16 -50.15,115.92 -97.84,151.89 -47.67,35.97 -108.51,54.05 -182.71,54.05 -93.3,0 -167.3,-28.78 -221.96,-86.31 -54.66,-57.36 -81.99,-138.13 -81.99,-241.91 0,-107.29 27.53,-190.73 82.83,-249.93 55.28,-59.4 127.01,-88.99 215.16,-88.99 85.31,0 154.98,28.97 209.03,87.15 54.05,58.17 81.18,139.97 81.18,245.39 0,6.38 -0.22,16.05 -0.61,28.78l-476.63 0c4.12,70.07 23.85,123.92 59.62,161.12 35.55,37.22 80.15,55.91 133.37,55.91 39.67,0 73.58,-10.48 101.55,-31.45 28.14,-20.95 50.34,-54.47 66.78,-100.49zm-355.13 -173.87l356.36 0c-4.71,-53.85 -18.5,-94.14 -40.9,-121.05 -34.32,-41.73 -79.12,-62.68 -134.01,-62.68 -49.73,0 -91.44,16.66 -125.35,49.95 -33.71,33.29 -52.43,77.87 -56.11,133.78z"/>
 </g>
</svg>
